<mxfile host="app.diagrams.net" modified="2021-02-17T13:50:46.147Z" agent="5.0 (Windows NT 10.0; Win64; x64) AppleWebKit/537.36 (KHTML, like Gecko) Chrome/88.0.4324.146 Safari/537.36" etag="Emi2y6egADrdGzLi_GO9" version="14.3.2" type="github">
  <diagram name="Page-1" id="42789a77-a242-8287-6e28-9cd8cfd52e62">
    <mxGraphModel dx="868" dy="484" grid="1" gridSize="10" guides="1" tooltips="1" connect="1" arrows="1" fold="1" page="1" pageScale="1" pageWidth="1100" pageHeight="850" background="#ffffff" math="0" shadow="0">
      <root>
        <mxCell id="0" />
        <mxCell id="1" parent="0" />
        <mxCell id="1ea317790d2ca983-1" value="MaterialApp" style="ellipse;whiteSpace=wrap;html=1;rounded=0;shadow=1;comic=0;labelBackgroundColor=none;strokeWidth=1;fontFamily=Verdana;fontSize=12;align=center;" parent="1" vertex="1">
          <mxGeometry x="450" y="80" width="90" height="60" as="geometry" />
        </mxCell>
        <mxCell id="hsnfMFslFAVzhNeBVYDI-1" value="Scaffold" style="ellipse;whiteSpace=wrap;html=1;" vertex="1" parent="1">
          <mxGeometry x="447.5" y="180" width="90" height="60" as="geometry" />
        </mxCell>
        <mxCell id="hsnfMFslFAVzhNeBVYDI-2" value="Card" style="ellipse;whiteSpace=wrap;html=1;" vertex="1" parent="1">
          <mxGeometry x="442.5" y="380" width="102.5" height="70" as="geometry" />
        </mxCell>
        <mxCell id="hsnfMFslFAVzhNeBVYDI-3" value="Container" style="ellipse;whiteSpace=wrap;html=1;" vertex="1" parent="1">
          <mxGeometry x="442.5" y="490" width="97.5" height="60" as="geometry" />
        </mxCell>
        <mxCell id="hsnfMFslFAVzhNeBVYDI-4" value="Column" style="ellipse;whiteSpace=wrap;html=1;" vertex="1" parent="1">
          <mxGeometry x="442.5" y="280" width="105" height="60" as="geometry" />
        </mxCell>
        <mxCell id="hsnfMFslFAVzhNeBVYDI-5" value="ClipRRect" style="ellipse;whiteSpace=wrap;html=1;" vertex="1" parent="1">
          <mxGeometry x="437.5" y="590" width="100" height="60" as="geometry" />
        </mxCell>
      </root>
    </mxGraphModel>
  </diagram>
</mxfile>
